mtllib Pipe.mtl
usemtl phong1SG
# Blender v2.78 (sub 0) OBJ File: ''
# www.blender.org
o Cylinder_Cylinder.004
v -0.736128 -0.000000 -0.036904
v 0.736128 0.000000 -0.036904
v -0.736128 -0.012622 -0.034678
v 0.736128 -0.012622 -0.034678
v -0.736128 -0.023721 -0.028270
v 0.736128 -0.023721 -0.028270
v -0.736128 -0.031960 -0.018452
v 0.736128 -0.031960 -0.018452
v -0.736128 -0.036343 -0.006408
v 0.736128 -0.036343 -0.006408
v -0.736128 -0.036343 0.006408
v 0.736128 -0.036343 0.006408
v -0.736128 -0.031960 0.018452
v 0.736128 -0.031960 0.018452
v -0.736128 -0.023721 0.028270
v 0.736128 -0.023721 0.028270
v -0.736128 -0.012622 0.034678
v 0.736128 -0.012622 0.034678
v -0.736128 -0.000000 0.036904
v 0.736128 0.000000 0.036904
v -0.736128 0.012622 0.034678
v 0.736128 0.012622 0.034678
v -0.736128 0.023721 0.028270
v 0.736128 0.023721 0.028270
v -0.736128 0.031960 0.018452
v 0.736128 0.031960 0.018452
v -0.736128 0.036343 0.006408
v 0.736128 0.036343 0.006408
v -0.736128 0.036343 -0.006408
v 0.736128 0.036343 -0.006408
v -0.736128 0.031960 -0.018452
v 0.736128 0.031960 -0.018452
v -0.736128 0.023721 -0.028270
v 0.736128 0.023721 -0.028270
v -0.736128 0.012622 -0.034678
v 0.736128 0.012622 -0.034678
v -0.736128 -0.000000 -0.028554
v 0.736128 0.000000 -0.028554
v -0.736128 -0.009766 -0.026833
v 0.736128 -0.009766 -0.026833
v -0.736128 -0.018354 -0.021874
v 0.736128 -0.018354 -0.021874
v -0.736128 -0.024729 -0.014277
v 0.736128 -0.024729 -0.014277
v -0.736128 -0.028121 -0.004959
v 0.736128 -0.028120 -0.004959
v -0.736128 -0.028121 0.004959
v 0.736128 -0.028120 0.004959
v -0.736128 -0.024729 0.014277
v 0.736128 -0.024729 0.014277
v -0.736128 -0.018354 0.021874
v 0.736128 -0.018354 0.021874
v -0.736128 -0.009766 0.026833
v 0.736128 -0.009766 0.026833
v -0.736128 -0.000000 0.028554
v 0.736128 0.000000 0.028554
v -0.736128 0.009766 0.026833
v 0.736128 0.009766 0.026833
v -0.736128 0.018354 0.021874
v 0.736128 0.018354 0.021874
v -0.736128 0.024729 0.014277
v 0.736128 0.024729 0.014277
v -0.736128 0.028120 0.004959
v 0.736128 0.028121 0.004959
v -0.736128 0.028121 -0.004959
v 0.736128 0.028121 -0.004959
v -0.736128 0.024729 -0.014277
v 0.736128 0.024729 -0.014277
v -0.736128 0.018354 -0.021874
v 0.736128 0.018354 -0.021874
v -0.736128 0.009766 -0.026832
v 0.736128 0.009766 -0.026832
vt 0.0905 0.9953
vt 0.0732 0.0057
vt 0.0905 0.0056
vt 0.0732 0.9954
vt 0.0560 0.0058
vt 0.0560 0.9955
vt 0.0387 0.0060
vt 0.0387 0.9956
vt 0.0214 0.0061
vt 0.0214 0.9957
vt 0.0041 0.0062
vt 0.3151 0.9938
vt 0.2978 0.0043
vt 0.3151 0.0041
vt 0.2805 0.9940
vt 0.2805 0.0044
vt 0.2632 0.0045
vt 0.2460 0.9943
vt 0.2460 0.0046
vt 0.2287 0.0047
vt 0.2287 0.9944
vt 0.2114 0.0048
vt 0.2114 0.9945
vt 0.1941 0.0049
vt 0.1941 0.9946
vt 0.1769 0.0050
vt 0.1769 0.9947
vt 0.1596 0.0052
vt 0.1596 0.9948
vt 0.1423 0.0053
vt 0.1423 0.9950
vt 0.1251 0.0054
vt 0.1251 0.9951
vt 0.1078 0.0055
vt 0.0041 0.9959
vt 0.2978 0.9939
vt 0.2632 0.9942
vt 0.1078 0.9952
vt 0.5360 0.0064
vt 0.5208 0.8769
vt 0.5208 0.0063
vt 0.5512 0.8772
vt 0.5360 0.8770
vt 0.5664 0.0067
vt 0.5512 0.0066
vt 0.5816 0.0069
vt 0.5664 0.8774
vt 0.5968 0.0071
vt 0.5816 0.8775
vt 0.3385 0.0043
vt 0.3233 0.8748
vt 0.3233 0.0041
vt 0.3537 0.0045
vt 0.3385 0.8749
vt 0.3689 0.0046
vt 0.3537 0.8751
vt 0.3841 0.0048
vt 0.3689 0.8752
vt 0.3993 0.0050
vt 0.3841 0.8754
vt 0.4145 0.0051
vt 0.3993 0.8756
vt 0.4297 0.0053
vt 0.4145 0.8757
vt 0.4449 0.0054
vt 0.4297 0.8759
vt 0.4601 0.0056
vt 0.4449 0.8761
vt 0.4753 0.0058
vt 0.4601 0.8762
vt 0.4905 0.0059
vt 0.4753 0.8764
vt 0.5057 0.0061
vt 0.4905 0.8765
vt 0.5057 0.8767
vt 0.5968 0.8777
vt 0.6743 0.0454
vt 0.6632 0.0529
vt 0.6665 0.0440
vt 0.6623 0.0662
vt 0.6701 0.0568
vt 0.6490 0.0648
vt 0.6572 0.0601
vt 0.6517 0.0723
vt 0.6397 0.0664
vt 0.6277 0.0723
vt 0.6397 0.0744
vt 0.6171 0.0662
vt 0.6304 0.0648
vt 0.6093 0.0568
vt 0.6222 0.0601
vt 0.6129 0.0440
vt 0.6161 0.0529
vt 0.6051 0.0332
vt 0.6051 0.0454
vt 0.6161 0.0257
vt 0.6129 0.0345
vt 0.6171 0.0124
vt 0.6093 0.0217
vt 0.6304 0.0137
vt 0.6222 0.0184
vt 0.6277 0.0063
vt 0.6397 0.0121
vt 0.6397 0.0041
vt 0.6490 0.0137
vt 0.6623 0.0124
vt 0.6517 0.0063
vt 0.6701 0.0217
vt 0.6572 0.0184
vt 0.6665 0.0345
vt 0.6632 0.0257
vt 0.6743 0.0332
vt 0.6623 0.0909
vt 0.6490 0.0923
vt 0.6517 0.0848
vt 0.6397 0.0827
vt 0.6397 0.0906
vt 0.6304 0.0923
vt 0.6277 0.0848
vt 0.6222 0.0970
vt 0.6171 0.0909
vt 0.6161 0.1042
vt 0.6093 0.1002
vt 0.6051 0.1117
vt 0.6129 0.1131
vt 0.6051 0.1239
vt 0.6129 0.1225
vt 0.6161 0.1314
vt 0.6093 0.1354
vt 0.6171 0.1447
vt 0.6222 0.1386
vt 0.6304 0.1433
vt 0.6277 0.1508
vt 0.6397 0.1529
vt 0.6397 0.1450
vt 0.6490 0.1433
vt 0.6517 0.1508
vt 0.6572 0.1386
vt 0.6623 0.1447
vt 0.6632 0.1314
vt 0.6701 0.1354
vt 0.6743 0.1239
vt 0.6665 0.1225
vt 0.6743 0.1117
vt 0.6665 0.1131
vt 0.6632 0.1042
vt 0.6701 0.1002
vt 0.6572 0.0970
vn 0.6700 0.0000 -0.7423
vn -0.6700 -0.2539 -0.6976
vn -0.6700 0.0000 -0.7423
vn 0.6700 -0.2539 -0.6976
vn -0.6700 -0.4772 -0.5687
vn 0.6700 -0.4772 -0.5687
vn -0.6700 -0.6429 -0.3712
vn 0.6700 -0.6429 -0.3712
vn -0.6700 -0.7310 -0.1289
vn 0.6700 -0.7310 -0.1289
vn -0.6700 -0.7310 0.1289
vn 0.6700 -0.7310 0.1289
vn -0.6700 -0.6429 0.3712
vn 0.6700 -0.4772 0.5687
vn -0.6700 -0.4772 0.5687
vn -0.6700 -0.2539 0.6976
vn 0.6700 0.0000 0.7423
vn -0.6700 0.0000 0.7423
vn -0.6700 0.2539 0.6976
vn 0.6700 0.2539 0.6976
vn -0.6700 0.4772 0.5687
vn 0.6700 0.4772 0.5687
vn -0.6700 0.6429 0.3712
vn 0.6700 0.6429 0.3712
vn -0.6700 0.7310 0.1289
vn 0.6700 0.7310 0.1289
vn -0.6700 0.7310 -0.1289
vn 0.6700 0.7310 -0.1289
vn -0.6700 0.6429 -0.3712
vn 0.6700 0.6429 -0.3712
vn -0.6700 0.4772 -0.5687
vn 0.6700 0.4772 -0.5687
vn -0.6700 0.2539 -0.6976
vn 0.6700 -0.6429 0.3712
vn 0.6700 -0.2539 0.6976
vn 0.6700 0.2539 -0.6976
vn -0.7483 0.2268 0.6233
vn 0.7483 0.0000 0.6633
vn -0.7483 0.0000 0.6633
vn 0.7483 0.4263 0.5081
vn 0.7483 0.2268 0.6233
vn -0.7483 0.5744 0.3316
vn -0.7483 0.4263 0.5081
vn -0.7483 0.6532 0.1152
vn 0.7483 0.5744 0.3316
vn -0.7483 0.6532 -0.1152
vn 0.7483 0.6532 0.1152
vn -0.7483 0.5744 -0.3316
vn 0.7483 0.6532 -0.1152
vn -0.7483 0.4263 -0.5081
vn 0.7483 0.5744 -0.3316
vn -0.7483 0.2268 -0.6233
vn 0.7483 0.4263 -0.5081
vn -0.7483 0.0000 -0.6633
vn 0.7483 0.2268 -0.6233
vn -0.7483 -0.2268 -0.6233
vn 0.7483 0.0000 -0.6633
vn -0.7483 -0.4263 -0.5081
vn 0.7483 -0.2268 -0.6233
vn -0.7483 -0.5744 -0.3316
vn 0.7483 -0.4263 -0.5081
vn -0.7483 -0.6532 -0.1152
vn 0.7483 -0.5744 -0.3316
vn -0.7483 -0.6532 0.1152
vn 0.7483 -0.6532 -0.1152
vn -0.7483 -0.5744 0.3316
vn 0.7483 -0.6532 0.1152
vn -0.7483 -0.4263 0.5081
vn 0.7483 -0.5744 0.3316
vn -0.7483 -0.2268 0.6233
vn 0.7483 -0.4263 0.5081
vn 0.7483 -0.2268 0.6233
s 1
f 2/1/1 3/2/2 1/3/3
f 4/4/4 5/5/5 3/2/2
f 6/6/6 7/7/7 5/5/5
f 8/8/8 9/9/9 7/7/7
f 10/10/10 11/11/11 9/9/9
f 12/12/12 13/13/13 11/14/11
f 13/13/13 16/15/14 15/16/15
f 16/15/14 17/17/16 15/16/15
f 17/17/16 20/18/17 19/19/18
f 20/18/17 21/20/19 19/19/18
f 22/21/20 23/22/21 21/20/19
f 24/23/22 25/24/23 23/22/21
f 26/25/24 27/26/25 25/24/23
f 28/27/26 29/28/27 27/26/25
f 30/29/28 31/30/29 29/28/27
f 32/31/30 33/32/31 31/30/29
f 34/33/32 35/34/33 33/32/31
f 35/34/33 2/1/1 1/3/3
f 2/1/1 4/4/4 3/2/2
f 4/4/4 6/6/6 5/5/5
f 6/6/6 8/8/8 7/7/7
f 8/8/8 10/10/10 9/9/9
f 10/10/10 12/35/12 11/11/11
f 12/12/12 14/36/34 13/13/13
f 13/13/13 14/36/34 16/15/14
f 16/15/14 18/37/35 17/17/16
f 17/17/16 18/37/35 20/18/17
f 20/18/17 22/21/20 21/20/19
f 22/21/20 24/23/22 23/22/21
f 24/23/22 26/25/24 25/24/23
f 26/25/24 28/27/26 27/26/25
f 28/27/26 30/29/28 29/28/27
f 30/29/28 32/31/30 31/30/29
f 32/31/30 34/33/32 33/32/31
f 34/33/32 36/38/36 35/34/33
f 35/34/33 36/38/36 2/1/1
s 2
f 39/39/37 38/40/38 37/41/39
f 39/39/37 42/42/40 40/43/41
f 43/44/42 42/42/40 41/45/43
f 45/46/44 44/47/45 43/44/42
f 47/48/46 46/49/47 45/46/44
f 49/50/48 48/51/49 47/52/46
f 51/53/50 50/54/51 49/50/48
f 53/55/52 52/56/53 51/53/50
f 55/57/54 54/58/55 53/55/52
f 57/59/56 56/60/57 55/57/54
f 59/61/58 58/62/59 57/59/56
f 61/63/60 60/64/61 59/61/58
f 63/65/62 62/66/63 61/63/60
f 65/67/64 64/68/65 63/65/62
f 67/69/66 66/70/67 65/67/64
f 69/71/68 68/72/69 67/69/66
f 71/73/70 70/74/71 69/71/68
f 37/41/39 72/75/72 71/73/70
f 39/39/37 40/43/41 38/40/38
f 39/39/37 41/45/43 42/42/40
f 43/44/42 44/47/45 42/42/40
f 45/46/44 46/49/47 44/47/45
f 47/48/46 48/76/49 46/49/47
f 49/50/48 50/54/51 48/51/49
f 51/53/50 52/56/53 50/54/51
f 53/55/52 54/58/55 52/56/53
f 55/57/54 56/60/57 54/58/55
f 57/59/56 58/62/59 56/60/57
f 59/61/58 60/64/61 58/62/59
f 61/63/60 62/66/63 60/64/61
f 63/65/62 64/68/65 62/66/63
f 65/67/64 66/70/67 64/68/65
f 67/69/66 68/72/69 66/70/67
f 69/71/68 70/74/71 68/72/69
f 71/73/70 72/75/72 70/74/71
f 37/41/39 38/40/38 72/75/72
s 3
f 1/77/3 39/78/37 37/79/39
f 5/80/5 39/78/37 3/81/2
f 5/80/5 43/82/42 41/83/43
f 7/84/7 45/85/44 43/82/42
f 11/86/11 45/85/44 9/87/9
f 13/88/13 47/89/46 11/86/11
f 15/90/15 49/91/48 13/88/13
f 15/90/15 53/92/52 51/93/50
f 19/94/18 53/92/52 17/95/16
f 19/94/18 57/96/56 55/97/54
f 23/98/21 57/96/56 21/99/19
f 23/98/21 61/100/60 59/101/58
f 25/102/23 63/103/62 61/100/60
f 27/104/25 65/105/64 63/103/62
f 31/106/29 65/105/64 29/107/27
f 33/108/31 67/109/66 31/106/29
f 33/108/31 71/110/70 69/111/68
f 1/77/3 71/110/70 35/112/33
f 1/77/3 3/81/2 39/78/37
f 5/80/5 41/83/43 39/78/37
f 5/80/5 7/84/7 43/82/42
f 7/84/7 9/87/9 45/85/44
f 11/86/11 47/89/46 45/85/44
f 13/88/13 49/91/48 47/89/46
f 15/90/15 51/93/50 49/91/48
f 15/90/15 17/95/16 53/92/52
f 19/94/18 55/97/54 53/92/52
f 19/94/18 21/99/19 57/96/56
f 23/98/21 59/101/58 57/96/56
f 23/98/21 25/102/23 61/100/60
f 25/102/23 27/104/25 63/103/62
f 27/104/25 29/107/27 65/105/64
f 31/106/29 67/109/66 65/105/64
f 33/108/31 69/111/68 67/109/66
f 33/108/31 35/112/33 71/110/70
f 1/77/3 37/79/39 71/110/70
s 4
f 2/113/1 40/114/41 4/115/4
f 6/116/6 40/114/41 42/117/40
f 6/116/6 44/118/45 8/119/8
f 8/119/8 46/120/47 10/121/10
f 10/121/10 48/122/49 12/123/12
f 14/124/34 48/122/49 50/125/51
f 16/126/14 50/125/51 52/127/53
f 16/126/14 54/128/55 18/129/35
f 20/130/17 54/128/55 56/131/57
f 20/130/17 58/132/59 22/133/20
f 24/134/22 58/132/59 60/135/61
f 24/134/22 62/136/63 26/137/24
f 26/137/24 64/138/65 28/139/26
f 28/139/26 66/140/67 30/141/28
f 32/142/30 66/140/67 68/143/69
f 34/144/32 68/143/69 70/145/71
f 34/144/32 72/146/72 36/147/36
f 2/113/1 72/146/72 38/148/38
f 2/113/1 38/148/38 40/114/41
f 6/116/6 4/115/4 40/114/41
f 6/116/6 42/117/40 44/118/45
f 8/119/8 44/118/45 46/120/47
f 10/121/10 46/120/47 48/122/49
f 14/124/34 12/123/12 48/122/49
f 16/126/14 14/124/34 50/125/51
f 16/126/14 52/127/53 54/128/55
f 20/130/17 18/129/35 54/128/55
f 20/130/17 56/131/57 58/132/59
f 24/134/22 22/133/20 58/132/59
f 24/134/22 60/135/61 62/136/63
f 26/137/24 62/136/63 64/138/65
f 28/139/26 64/138/65 66/140/67
f 32/142/30 30/141/28 66/140/67
f 34/144/32 32/142/30 68/143/69
f 34/144/32 70/145/71 72/146/72
f 2/113/1 36/147/36 72/146/72
