mtllib materials.mtl
v 0.0005584657 -0.09909201 0.485017
v 0.245264 -0.09909201 0.4194483
v 0.2452638 -1.077914 0.419448
v 0.0005582869 -1.077914 0.4850166
v 0.4244007 -0.09909201 0.2403117
v 0.4244005 -1.077914 0.2403113
v 0.4899696 -0.09909189 -0.004393816
v 0.4899694 -1.077914 -0.004394114
v 0.4244009 -0.09909189 -0.2490993
v 0.4244007 -1.077914 -0.2490996
v 0.2452642 -0.09909165 -0.428236
v 0.2452641 -1.077914 -0.4282363
v 0.0005587637 -0.09909165 -0.4938049
v 0.0005585849 -1.077914 -0.4938052
v -0.2441467 -0.09909165 -0.4282361
v -0.2441469 -1.077914 -0.4282365
v -0.4232834 -0.09909165 -0.2490994
v -0.4232836 -1.077914 -0.2490998
v -0.4888523 -0.09909177 -0.004394114
v -0.4888525 -1.077914 -0.004394472
v -0.4232836 -0.09909189 0.2403112
v -0.4232838 -1.077914 0.240311
v -0.2441468 -0.09909189 0.4194482
v -0.244147 -1.077914 0.4194478
v 0.2207932 -1.139091 0.3770633
v 0.0005582869 -1.139091 0.4360752
v 0.3820164 -1.139091 0.2158404
v 0.4410281 -1.139091 -0.004394293
v 0.3820165 -1.139091 -0.2246292
v 0.2207933 -1.139091 -0.3858524
v 0.0005585849 -1.139091 -0.4448643
v -0.2196764 -1.139089 -0.3858525
v -0.3808994 -1.139089 -0.2246296
v -0.4399111 -1.139091 -0.00439465
v -0.3808996 -1.139091 0.2158402
v -0.2196764 -1.139091 0.3770633
v 0.1789486 -1.139091 0.3045862
v 0.0005583167 -1.139092 0.3523858
v 0.3095394 -1.139091 0.1739957
v 0.357339 -1.139092 -0.004394531
v 0.3095394 -1.139092 -0.1827847
v 0.1789488 -1.139091 -0.3133754
v 0.0005585849 -1.139091 -0.3611752
v -0.1778318 -1.139089 -0.3133755
v -0.3084225 -1.139089 -0.182785
v -0.3562221 -1.139091 -0.00439465
v -0.3084226 -1.139092 0.1739953
v -0.1778318 -1.139092 0.3045861
v 0.1789486 -1.077915 0.3045864
v 0.0005582869 -1.077915 0.3523858
v 0.3095394 -1.077915 0.1739959
v 0.3573388 -1.077915 -0.004394293
v 0.3095394 -1.077915 -0.1827845
v 0.1789488 -1.077915 -0.3133752
v 0.0005585849 -1.077915 -0.3611749
v -0.1778317 -1.077913 -0.3133754
v -0.3084225 -1.077913 -0.1827849
v -0.3562221 -1.077915 -0.004394472
v -0.3084226 -1.077915 0.1739956
v -0.1778318 -1.077915 0.3045861
v 0.1450545 -1.139091 0.2458794
v 0.0005582869 -1.139092 0.284597
v 0.2508329 -1.139091 0.1401011
v 0.2895505 -1.139092 -0.004394889
v 0.250833 -1.139092 -0.1488911
v 0.1450545 -1.139091 -0.2546694
v 0.0005584955 -1.139091 -0.2933871
v -0.1439377 -1.13909 -0.2546696
v -0.2497161 -1.13909 -0.1488912
v -0.2884338 -1.139091 -0.004395008
v -0.2497162 -1.139092 0.1401009
v -0.1439376 -1.139092 0.2458792
v 0.0005584657 0.451496 0.4850168
v 0.2452639 0.451496 0.4194482
v 0.2452639 -0.09909129 0.4194482
v 0.0005584657 -0.09909129 0.4850169
v 0.4244006 0.451496 0.2403114
v 0.4244006 -0.09909129 0.2403116
v 0.4899695 0.451496 -0.004393816
v 0.4899695 -0.09909117 -0.004393935
v 0.4244007 0.451496 -0.2490992
v 0.4244007 -0.09909117 -0.2490994
v 0.2452641 0.451496 -0.4282359
v 0.2452641 -0.09909117 -0.4282361
v 0.0005585849 0.451496 -0.4938046
v 0.0005585849 -0.09909117 -0.493805
v -0.2441469 0.451496 -0.428236
v -0.2441469 -0.09909117 -0.4282361
v -0.4232835 0.451496 -0.2490993
v -0.4232835 -0.09909117 -0.2490994
v -0.4888524 0.451496 -0.004393995
v -0.4888524 -0.09909117 -0.004394114
v -0.4232836 0.451496 0.2403113
v -0.4232836 -0.09909129 0.2403112
v -0.2441468 0.451496 0.4194483
v -0.2441468 -0.09909129 0.4194482
v -0.3808994 0.5126723 0.2158411
v -0.2196762 0.5126721 0.3770643
v -0.4399109 0.5126723 -0.004393995
v -0.3808993 0.5126723 -0.2246286
v -0.2196762 0.5126723 -0.3858517
v 0.0005585849 0.5126723 -0.4448633
v 0.2207934 0.5126723 -0.3858516
v 0.3820165 0.5126723 -0.2246284
v 0.4410281 0.5126723 -0.004393637
v 0.3820164 0.5126723 0.2158412
v 0.2207933 0.5126721 0.3770643
v 0.0005584657 0.5126721 0.436076
v -0.3427536 0.451496 0.1938178
v -0.1976527 0.451496 0.3389186
v -0.3958641 0.451496 -0.004393816
v -0.3427535 0.451496 -0.2026047
v -0.1976528 0.451496 -0.3477056
v 0.0005585849 0.451496 -0.4008163
v 0.19877 0.451496 -0.3477055
v 0.3438706 0.451496 -0.2026048
v 0.3969812 0.451496 -0.004393518
v 0.3438706 0.451496 0.1938182
v 0.1987698 0.451496 0.3389187
v 0.0005584657 0.451496 0.3920293
v 0.0005585253 0.5738484 0.117959
v 0.06173491 0.5738484 0.1015667
v 0.06173491 0.3291429 0.1015666
v 0.0005585253 0.3291429 0.1179588
v 0.1065191 0.5738484 0.05678242
v 0.1065191 0.3291429 0.05678248
v 0.1229113 0.5738484 -0.004393816
v 0.1229113 0.3291429 -0.004393876
v 0.1065191 0.5738484 -0.06557012
v 0.1065191 0.3291429 -0.06557024
v 0.06173494 0.5738484 -0.1103544
v 0.06173494 0.3291432 -0.1103544
v 0.0005585551 0.5738484 -0.1267467
v 0.0005585551 0.3291432 -0.1267467
v -0.0606178 0.5738484 -0.1103544
v -0.0606178 0.3291432 -0.1103544
v -0.105402 0.5738484 -0.06557018
v -0.105402 0.3291429 -0.06557024
v -0.1217942 0.5738484 -0.004393876
v -0.1217942 0.3291429 -0.004393935
v -0.105402 0.5738484 0.05678242
v -0.105402 0.3291429 0.05678242
v -0.06061777 0.5738484 0.1015667
v -0.06061777 0.3291429 0.1015666
v -0.06080511 -0.9185339 -0.4696169
v -0.06222677 -0.8750013 -0.4722234
v -0.0748575 -0.8779085 -0.5138877
v -0.07343584 -0.9214411 -0.5112813
v -0.1860293 -0.9203429 -0.4315284
v -0.1986601 -0.92325 -0.4731928
v -0.2000817 -0.8797175 -0.4757992
v -0.187451 -0.8768103 -0.4341349
v 0.1082348 0.2796069 0.4518841
v 0.1072084 0.3594769 0.4474384
v 0.1145317 0.3611876 0.4764805
v 0.115558 0.2813178 0.4809262
v 0.1373247 0.2795726 0.4445508
v 0.1446479 0.2812833 0.4735929
v 0.1436216 0.3611532 0.4691473
v 0.1362983 0.3594424 0.4401051
v 0.04074323 0.249736 0.4706622
v 0.04035833 0.279687 0.468995
v 0.04768157 0.2813977 0.498037
v 0.04806647 0.2514466 0.4997043
v 0.205586 0.2495409 0.429107
v 0.2129092 0.2512516 0.4581491
v 0.2125244 0.2812032 0.456482
v 0.2052011 0.2794925 0.4274399
v 0.109646 0.1697861 0.4579969
v 0.1086196 0.2496558 0.4535512
v 0.1159429 0.2513665 0.4825934
v 0.1169692 0.1714967 0.487039
v 0.1387359 0.1697515 0.4506636
v 0.1460591 0.1714622 0.4797058
v 0.1450328 0.2513319 0.4752601
v 0.1377095 0.2496213 0.446218
v -0.1079525 0.2158784 -0.4440647
v -0.1083195 0.2958776 -0.4440362
v -0.1158241 0.2958535 -0.4730824
v -0.1154571 0.2158543 -0.4731109
v -0.1369984 0.2157425 -0.4365601
v -0.144503 0.2157184 -0.4656063
v -0.1448699 0.2957176 -0.4655777
v -0.1373653 0.2957417 -0.4365315
v -0.1084571 0.3258773 -0.4440255
v -0.108824 0.4058765 -0.4439969
v -0.1163286 0.4058524 -0.4730431
v -0.1159617 0.3258532 -0.4730717
v -0.137503 0.3257414 -0.4365208
v -0.1450076 0.3257173 -0.465567
v -0.1453745 0.4057165 -0.4655385
v -0.1378699 0.4057406 -0.4364923
v -0.04054579 0.2961947 -0.461547
v -0.04068339 0.3261944 -0.4615363
v -0.048188 0.3261703 -0.4905825
v -0.0480504 0.2961706 -0.4905932
v -0.205139 0.2954243 -0.4190208
v -0.2126436 0.2954003 -0.4480669
v -0.2127812 0.3254002 -0.4480563
v -0.2052766 0.3254243 -0.4190101
v 0.05974174 -0.8895283 0.4539208
v 0.06036016 -0.845924 0.455401
v 0.07114881 -0.8475112 0.4976501
v 0.07053041 -0.8911154 0.4961699
v 0.186565 -0.8902267 0.4215092
v 0.1973537 -0.8918139 0.4637583
v 0.1979721 -0.8482096 0.4652385
v 0.1871834 -0.8466225 0.4229894
vn -3.496911E-07 -3.496911E-07 1
vn 0.4999997 -3.902642E-07 0.8660256
vn 0.8660253 -3.262663E-07 0.5000003
vn 1 -1.748456E-07 3.059797E-07
vn 0.8660256 2.342486E-08 -0.4999998
vn 0.5000004 2.154186E-07 -0.8660252
vn 2.622683E-07 3.496911E-07 -1
vn -0.4999999 3.902642E-07 -0.8660255
vn -0.8660253 3.262662E-07 -0.5000002
vn -1 1.748456E-07 -3.377662E-07
vn -0.8660256 -2.342479E-08 0.4999996
vn -0.5000001 -2.154187E-07 0.8660254
vn 1.748455E-07 1 3.496912E-07
vn 0.2047986 -0.6114516 0.7643195
vn 0.5595211 -0.6114507 0.5595215
vn 0.7643213 -0.6114493 0.2047993
vn 0.7643219 -0.6114485 -0.2047992
vn 0.5595233 -0.611447 -0.5595231
vn 0.2048001 -0.6114457 -0.764324
vn -0.204801 -0.6114498 -0.7643205
vn -0.5595189 -0.6114547 -0.5595192
vn -0.7643193 -0.6114513 -0.204801
vn -0.7643222 -0.6114483 0.204799
vn -0.5595219 -0.6114501 0.5595215
vn -0.2047991 -0.6114514 0.7643197
vn 2.339747E-06 -1 8.808795E-06
vn 6.204325E-06 -1 5.879428E-06
vn 8.783007E-06 -1 1.95991E-06
vn 8.840188E-06 -1 -2.66432E-06
vn 6.51673E-06 -1 -6.795047E-06
vn 2.193823E-06 -1 -8.813924E-06
vn -9.697333E-06 -1 -1.781893E-06
vn -1.748454E-07 -1 -4.92692E-07
vn -2.001326E-06 -1 -1.00502E-05
vn -8.588069E-06 -1 1.930081E-06
vn -6.241631E-06 -1 6.261894E-06
vn -2.476076E-06 -1 8.502268E-06
vn -0.2588191 1.576152E-06 -0.9659258
vn -0.7071061 2.16113E-06 -0.7071075
vn -0.9659258 2.739776E-07 -0.2588189
vn -0.965926 -1.06861E-06 0.2588186
vn -0.7071068 -2.47067E-06 0.7071068
vn -0.2588199 -3.090612E-06 0.9659256
vn 0.2588196 -3.016342E-06 0.9659257
vn 0.7071064 -1.823092E-06 0.7071072
vn 0.9659258 -6.346675E-07 0.2588191
vn 0.9659259 1.047508E-06 -0.258819
vn 0.7071065 1.423771E-06 -0.7071071
vn 0.2588202 2.426601E-07 -0.9659254
vn 0.1766933 -0.7307072 0.659429
vn 0.4827355 -0.7307063 0.4827366
vn 0.6594311 -0.7307051 0.1766939
vn 0.6594328 -0.7307034 -0.1766943
vn 0.4827392 -0.730702 -0.4827396
vn 0.1766956 -0.7307016 -0.6594344
vn -0.1767034 -0.7306987 -0.6594356
vn -0.4827425 -0.7306976 -0.4827429
vn -0.6594329 -0.7307012 -0.1767027
vn -0.6594311 -0.730705 0.1766937
vn -0.4827357 -0.7307062 0.4827367
vn -0.1766945 -0.730707 0.6594287
vn -1.748455E-07 -1 -3.496912E-07
vn 0.2588186 -8.076731E-08 0.965926
vn 0.7071066 -1.199334E-07 0.7071069
vn 0.9659258 -1.068832E-08 0.2588193
vn 0.9659259 1.44719E-07 -0.2588189
vn 0.7071071 1.072389E-07 -0.7071065
vn 0.2588188 3.526617E-07 -0.9659259
vn -0.2588187 7.87721E-08 -0.9659259
vn -0.7071068 1.008091E-07 -0.7071067
vn -0.9659258 1.057925E-07 -0.2588193
vn -0.9659259 -2.770211E-08 0.2588189
vn -0.7071069 -1.271706E-07 0.7071066
vn -0.2588184 1.499432E-08 0.9659261
vn -0.55952 0.6114532 0.5595199
vn 3.057097E-14 -1 -1.748456E-07
vn -0.7643176 0.6114543 0.204798
vn -0.7643169 0.611455 -0.2047982
vn -0.5595184 0.611456 -0.5595182
vn -0.2047978 0.6114559 -0.7643165
vn 0.204798 0.6114558 -0.7643165
vn 0.5595185 0.6114562 -0.559518
vn 0.7643169 0.6114553 -0.204798
vn 0.7643176 0.6114541 0.2047985
vn 0.55952 0.6114527 0.5595202
vn 0.2047983 0.611452 0.7643194
vn -0.2047982 0.6114527 0.7643188
vn 0.5805182 0.5709614 -0.5805185
vn 0.7930027 0.5709618 -0.2124837
vn 0.7930018 0.5709627 0.2124846
vn 0.5805171 0.5709642 0.5805168
vn 0.2124841 0.570964 0.793001
vn -0.2124843 0.5709639 0.7930011
vn -0.5805176 0.5709634 0.5805171
vn -0.7930018 0.5709628 0.2124844
vn -0.7930027 0.5709617 -0.2124844
vn -0.5805186 0.5709608 -0.5805187
vn -0.2124844 0.5709603 -0.7930036
vn 0.2124849 0.5709602 -0.7930036
vn -3.057097E-14 1 1.748456E-07
vn 0.2588192 -3.140574E-07 0.9659258
vn 0.7071074 -1.899443E-08 0.7071062
vn 0.9659258 -2.193025E-08 0.2588192
vn 0.9659259 9.498625E-08 -0.2588189
vn 0.7071077 7.385045E-09 -0.7071059
vn 0.2588196 -9.923636E-08 -0.9659257
vn -0.2588194 -5.22222E-08 -0.9659258
vn -0.7071075 2.523642E-07 -0.707106
vn -0.9659258 3.658408E-08 -0.2588194
vn -0.9659259 -3.647775E-08 0.258819
vn -0.7071074 -1.258207E-07 0.7071062
vn -0.2588198 -4.387674E-07 0.9659256
vn -3.057097E-14 1 1.748456E-07
vn 3.057097E-14 -1 -1.748456E-07
vn 0.956632 0.01381955 -0.2909713
vn -0.956632 -0.01381955 0.2909713
vn 0.2894714 0.06662504 0.9548653
vn -0.2894714 -0.06662504 -0.9548653
vn 0.03258173 -0.9976826 0.05973528
vn -0.03258173 0.9976826 -0.05973528
vn -0.9696633 0.001145668 0.2444421
vn 0.9696633 -0.001145668 -0.2444421
vn -0.2441079 -0.05702196 -0.9680703
vn 0.2441079 0.05702196 0.9680703
vn 0.01282949 -0.9983723 0.05557181
vn -0.01282949 0.9983723 -0.05557181
vn -0.9696633 0.001145668 0.2444421
vn 0.9696633 -0.001145668 -0.2444421
vn -0.2441079 -0.05702196 -0.9680703
vn 0.2441079 0.05702196 0.9680703
vn 0.01282949 -0.9983723 0.05557181
vn -0.01282949 0.9983723 -0.05557181
vn -0.9696633 0.001145668 0.2444421
vn 0.9696633 -0.001145668 -0.2444421
vn -0.2441079 -0.05702196 -0.9680703
vn 0.2441079 0.05702196 0.9680703
vn 0.01282949 -0.9983723 0.05557181
vn -0.01282949 0.9983723 -0.05557181
vn 0.9681954 0.004530385 -0.2501542
vn -0.9681954 -0.004530385 0.2501542
vn 0.2501532 0.0008019153 0.968206
vn -0.2501532 -0.0008019153 -0.968206
vn 0.004586913 -0.9999895 -0.0003568763
vn -0.004586913 0.9999895 0.0003568763
vn 0.9681954 0.004530385 -0.2501542
vn -0.9681954 -0.004530385 0.2501542
vn 0.2501532 0.0008019153 0.968206
vn -0.2501532 -0.0008019153 -0.968206
vn 0.004586913 -0.9999895 -0.0003568763
vn -0.004586913 0.9999895 0.0003568763
vn 0.9681954 0.004530385 -0.2501542
vn -0.9681954 -0.004530385 0.2501542
vn 0.2501532 0.0008019153 0.968206
vn -0.2501532 -0.0008019153 -0.968206
vn 0.004586913 -0.9999895 -0.0003568763
vn -0.004586913 0.9999895 0.0003568763
vn -0.9688472 0.005335592 0.2476036
vn 0.9688472 -0.005335592 -0.2476036
vn -0.2472552 0.0363756 -0.9682676
vn 0.2472552 -0.0363756 0.9682676
vn -0.01417294 -0.9993242 -0.03392265
vn 0.01417294 0.9993242 0.03392265
usemtl mat17
f 4//1 3//1 2//1 1//1
f 3//2 6//2 5//2 2//2
f 6//3 8//3 7//3 5//3
f 8//4 10//4 9//4 7//4
f 10//5 12//5 11//5 9//5
f 12//6 14//6 13//6 11//6
f 14//7 16//7 15//7 13//7
f 16//8 18//8 17//8 15//8
f 18//9 20//9 19//9 17//9
f 20//10 22//10 21//10 19//10
f 22//11 24//11 23//11 21//11
f 24//12 4//12 1//12 23//12
f 1//13 2//13 5//13 7//13 9//13 11//13 13//13 15//13 17//13 19//13 21//13 23//13
f 26//14 25//14 3//14 4//14
f 25//15 27//15 6//15 3//15
f 27//16 28//16 8//16 6//16
f 28//17 29//17 10//17 8//17
f 29//18 30//18 12//18 10//18
f 30//19 31//19 14//19 12//19
f 31//20 32//20 16//20 14//20
f 32//21 33//21 18//21 16//21
f 33//22 34//22 20//22 18//22
f 34//23 35//23 22//23 20//23
f 35//24 36//24 24//24 22//24
f 36//25 26//25 4//25 24//25
usemtl mat15
f 38//26 37//26 25//26 26//26
f 37//27 39//27 27//27 25//27
f 39//28 40//28 28//28 27//28
f 40//29 41//29 29//29 28//29
f 41//30 42//30 30//30 29//30
f 42//31 43//31 31//31 30//31
f 43//32 44//32 32//32 31//32
f 44//33 45//33 33//33 32//33
f 45//34 46//34 34//34 33//34
f 46//35 47//35 35//35 34//35
f 47//36 48//36 36//36 35//36
f 48//37 38//37 26//37 36//37
f 50//38 49//38 37//38 38//38
f 49//39 51//39 39//39 37//39
f 51//40 52//40 40//40 39//40
f 52//41 53//41 41//41 40//41
f 53//42 54//42 42//42 41//42
f 54//43 55//43 43//43 42//43
f 55//44 56//44 44//44 43//44
f 56//45 57//45 45//45 44//45
f 57//46 58//46 46//46 45//46
f 58//47 59//47 47//47 46//47
f 59//48 60//48 48//48 47//48
f 60//49 50//49 38//49 48//49
f 62//50 61//50 49//50 50//50
f 61//51 63//51 51//51 49//51
f 63//52 64//52 52//52 51//52
f 64//53 65//53 53//53 52//53
f 65//54 66//54 54//54 53//54
f 66//55 67//55 55//55 54//55
f 67//56 68//56 56//56 55//56
f 68//57 69//57 57//57 56//57
f 69//58 70//58 58//58 57//58
f 70//59 71//59 59//59 58//59
f 71//60 72//60 60//60 59//60
f 72//61 62//61 50//61 60//61
f 72//62 71//62 70//62 69//62 68//62 67//62 66//62 65//62 64//62 63//62 61//62 62//62
f 110//88 109//88 97//88 98//88
f 109//89 111//89 99//89 97//89
f 111//90 112//90 100//90 99//90
f 112//91 113//91 101//91 100//91
f 113//92 114//92 102//92 101//92
f 114//93 115//93 103//93 102//93
f 115//94 116//94 104//94 103//94
f 116//95 117//95 105//95 104//95
f 117//96 118//96 106//96 105//96
f 118//97 119//97 107//97 106//97
f 119//98 120//98 108//98 107//98
f 120//99 110//99 98//99 108//99
f 120//100 119//100 118//100 117//100 116//100 115//100 114//100 113//100 112//100 111//100 109//100 110//100
f 124//101 123//101 122//101 121//101
f 123//102 126//102 125//102 122//102
f 126//103 128//103 127//103 125//103
f 128//104 130//104 129//104 127//104
f 130//105 132//105 131//105 129//105
f 132//106 134//106 133//106 131//106
f 134//107 136//107 135//107 133//107
f 136//108 138//108 137//108 135//108
f 138//109 140//109 139//109 137//109
f 140//110 142//110 141//110 139//110
f 142//111 144//111 143//111 141//111
f 144//112 124//112 121//112 143//112
f 121//113 122//113 125//113 127//113 129//113 131//113 133//113 135//113 137//113 139//113 141//113 143//113
f 144//114 142//114 140//114 138//114 136//114 134//114 132//114 130//114 128//114 126//114 123//114 124//114
usemtl mat19
f 76//63 75//63 74//63 73//63
f 75//64 78//64 77//64 74//64
f 78//65 80//65 79//65 77//65
f 80//66 82//66 81//66 79//66
f 82//67 84//67 83//67 81//67
f 84//68 86//68 85//68 83//68
f 86//69 88//69 87//69 85//69
f 88//70 90//70 89//70 87//70
f 90//71 92//71 91//71 89//71
f 92//72 94//72 93//72 91//72
f 94//73 96//73 95//73 93//73
f 96//74 76//74 73//74 95//74
f 98//75 97//75 93//75 95//75
f 96//76 94//76 92//76 90//76 88//76 86//76 84//76 82//76 80//76 78//76 75//76 76//76
f 97//77 99//77 91//77 93//77
f 99//78 100//78 89//78 91//78
f 100//79 101//79 87//79 89//79
f 101//80 102//80 85//80 87//80
f 102//81 103//81 83//81 85//81
f 103//82 104//82 81//82 83//82
f 104//83 105//83 79//83 81//83
f 105//84 106//84 77//84 79//84
f 106//85 107//85 74//85 77//85
f 107//86 108//86 73//86 74//86
f 108//87 98//87 95//87 73//87
usemtl mat21
f 148//115 147//115 146//115 145//115
f 152//116 151//116 150//116 149//116
f 146//117 152//117 149//117 145//117
f 150//118 151//118 147//118 148//118
f 149//119 150//119 148//119 145//119
f 147//120 151//120 152//120 146//120
f 156//121 155//121 154//121 153//121
f 160//122 159//122 158//122 157//122
f 154//123 160//123 157//123 153//123
f 158//124 159//124 155//124 156//124
f 157//125 158//125 156//125 153//125
f 155//126 159//126 160//126 154//126
f 164//127 163//127 162//127 161//127
f 168//128 167//128 166//128 165//128
f 162//129 168//129 165//129 161//129
f 166//130 167//130 163//130 164//130
f 165//131 166//131 164//131 161//131
f 163//132 167//132 168//132 162//132
f 172//133 171//133 170//133 169//133
f 176//134 175//134 174//134 173//134
f 170//135 176//135 173//135 169//135
f 174//136 175//136 171//136 172//136
f 173//137 174//137 172//137 169//137
f 171//138 175//138 176//138 170//138
f 180//139 179//139 178//139 177//139
f 184//140 183//140 182//140 181//140
f 178//141 184//141 181//141 177//141
f 182//142 183//142 179//142 180//142
f 181//143 182//143 180//143 177//143
f 179//144 183//144 184//144 178//144
f 188//145 187//145 186//145 185//145
f 192//146 191//146 190//146 189//146
f 186//147 192//147 189//147 185//147
f 190//148 191//148 187//148 188//148
f 189//149 190//149 188//149 185//149
f 187//150 191//150 192//150 186//150
f 196//151 195//151 194//151 193//151
f 200//152 199//152 198//152 197//152
f 194//153 200//153 197//153 193//153
f 198//154 199//154 195//154 196//154
f 197//155 198//155 196//155 193//155
f 195//156 199//156 200//156 194//156
f 204//157 203//157 202//157 201//157
f 208//158 207//158 206//158 205//158
f 202//159 208//159 205//159 201//159
f 206//160 207//160 203//160 204//160
f 205//161 206//161 204//161 201//161
f 203//162 207//162 208//162 202//162
