# Blender v2.81 (sub 16) OBJ File: ''
# www.blender.org
mtllib Cartelli.mtl
o Beam.015_Cube.413
v 1.129470 17.786238 6.796454
v 1.129470 17.969061 6.796454
v 1.129464 17.969063 -3.537842
v 1.129464 17.786240 -3.537842
v 1.178520 17.969063 -3.537842
v 1.178520 17.786240 -3.537842
v 1.178527 17.969061 6.796454
v 1.178527 17.786238 6.796454
vt 0.000100 -0.004000
vt 0.000100 -0.004000
vt 0.000100 -0.004000
vt 0.000100 -0.004000
vt 0.000100 -0.004000
vt 0.000100 -0.004000
vt 0.000100 -0.004000
vt 0.000100 -0.004000
vn -1.0000 0.0000 0.0000
vn 0.0000 0.0000 -1.0000
vn 1.0000 0.0000 -0.0000
vn 0.0000 0.0000 1.0000
vn 0.0000 -1.0000 -0.0000
vn 0.0000 1.0000 0.0000
usemtl Building
s 1
f 1/1/1 2/2/1 3/3/1 4/4/1
f 4/4/2 3/3/2 5/5/2 6/6/2
f 6/6/3 5/5/3 7/7/3 8/8/3
f 8/8/4 7/7/4 2/2/4 1/1/4
f 4/4/5 6/6/5 8/8/5 1/1/5
f 5/5/6 3/3/6 2/2/6 7/7/6
o Beam.016_Cube.416
v 1.129470 19.876503 6.796453
v 1.129470 20.059326 6.796453
v 1.129464 20.059328 -3.537842
v 1.129464 19.876505 -3.537842
v 1.178520 20.059328 -3.537842
v 1.178520 19.876505 -3.537842
v 1.178527 20.059326 6.796453
v 1.178527 19.876503 6.796453
vt 0.000100 -0.004000
vt 0.000100 -0.004000
vt 0.000100 -0.004000
vt 0.000100 -0.004000
vt 0.000100 -0.004000
vt 0.000100 -0.004000
vt 0.000100 -0.004000
vt 0.000100 -0.004000
vn -1.0000 0.0000 0.0000
vn 0.0000 0.0000 -1.0000
vn 1.0000 0.0000 -0.0000
vn 0.0000 0.0000 1.0000
vn 0.0000 -1.0000 -0.0000
vn 0.0000 1.0000 0.0000
usemtl Building
s 1
f 9/9/7 10/10/7 11/11/7 12/12/7
f 12/12/8 11/11/8 13/13/8 14/14/8
f 14/14/9 13/13/9 15/15/9 16/16/9
f 16/16/10 15/15/10 10/10/10 9/9/10
f 12/12/11 14/14/11 16/16/11 9/9/11
f 13/13/12 11/11/12 10/10/12 15/15/12
o Beam.020_Cube.428
v 1.129470 21.634390 6.796453
v 1.129470 21.817213 6.796453
v 1.129464 21.817215 -3.537841
v 1.129464 21.634392 -3.537841
v 1.178520 21.817215 -3.537841
v 1.178520 21.634392 -3.537841
v 1.178527 21.817213 6.796453
v 1.178527 21.634390 6.796453
vt 0.000100 -0.004000
vt 0.000100 -0.004000
vt 0.000100 -0.004000
vt 0.000100 -0.004000
vt 0.000100 -0.004000
vt 0.000100 -0.004000
vt 0.000100 -0.004000
vt 0.000100 -0.004000
vn -1.0000 0.0000 0.0000
vn 0.0000 0.0000 -1.0000
vn 1.0000 0.0000 -0.0000
vn 0.0000 0.0000 1.0000
vn 0.0000 -1.0000 0.0000
vn 0.0000 1.0000 0.0000
usemtl Building
s 1
f 17/17/13 18/18/13 19/19/13 20/20/13
f 20/20/14 19/19/14 21/21/14 22/22/14
f 22/22/15 21/21/15 23/23/15 24/24/15
f 24/24/16 23/23/16 18/18/16 17/17/16
f 20/20/17 22/22/17 24/24/17 17/17/17
f 21/21/18 19/19/18 18/18/18 23/23/18
o Cube.075_Cube.415
v 1.023402 18.000977 3.275792
v 1.023401 19.917854 3.275792
v 1.023399 19.917854 -1.336186
v 1.023399 18.000977 -1.336186
v 1.277965 19.917854 -1.336186
v 1.277966 18.000977 -1.336186
v 1.277968 19.917854 3.275792
v 1.277968 18.000977 3.275792
vt 0.000100 -0.004000
vt 0.000100 1.004000
vt 0.999900 1.004000
vt 0.999900 -0.004000
vt 0.000000 0.000000
vt 0.000000 0.000000
vt 0.000000 0.000000
vt 0.000000 0.000000
vt 0.999900 0.000100
vt 0.999900 0.996000
vt 0.000100 0.996000
vt 0.000100 0.000100
vt 0.000000 0.000000
vt 0.000000 0.000000
vt 0.000000 0.000000
vt 0.000000 0.000000
vn -1.0000 -0.0000 0.0000
vn 0.0000 0.0000 -1.0000
vn 1.0000 0.0000 -0.0000
vn 0.0000 -0.0000 1.0000
vn 0.0000 -1.0000 0.0000
vn 0.0000 1.0000 -0.0000
usemtl Sign6.001
s 1
f 25/25/19 26/26/19 27/27/19 28/28/19
f 28/29/20 27/30/20 29/31/20 30/32/20
f 30/33/21 29/34/21 31/35/21 32/36/21
f 32/37/22 31/38/22 26/39/22 25/40/22
f 28/29/23 30/32/23 32/37/23 25/40/23
f 29/31/24 27/30/24 26/39/24 31/38/24
o Cube.080_Cube.427
v 0.999901 20.035616 3.233691
v 0.999901 21.634014 3.233692
v 0.999899 21.634014 -1.378286
v 0.999899 20.035616 -1.378287
v 1.254465 21.634014 -1.378287
v 1.254465 20.035616 -1.378288
v 1.254468 21.634014 3.233691
v 1.254468 20.035616 3.233690
vt 0.000100 -0.004000
vt 0.000100 1.004000
vt 0.999900 1.004000
vt 0.999900 -0.004000
vt 0.000000 0.000000
vt 0.000000 0.000000
vt 0.000000 0.000000
vt 0.000000 0.000000
vt 0.999900 0.000100
vt 0.999900 0.996000
vt 0.000100 0.996000
vt 0.000100 0.000100
vt 0.000000 0.000000
vt 0.000000 0.000000
vt 0.000000 0.000000
vt 0.000000 0.000000
vn -1.0000 -0.0000 0.0000
vn -0.0000 0.0000 -1.0000
vn 1.0000 -0.0000 -0.0000
vn 0.0000 -0.0000 1.0000
vn 0.0000 -1.0000 0.0000
vn 0.0000 1.0000 0.0000
usemtl Sign7.001
s 1
f 33/41/25 34/42/25 35/43/25 36/44/25
f 36/45/26 35/46/26 37/47/26 38/48/26
f 38/49/27 37/50/27 39/51/27 40/52/27
f 40/53/28 39/54/28 34/55/28 33/56/28
f 36/45/29 38/48/29 40/53/29 33/56/29
f 37/47/30 35/46/30 34/55/30 39/54/30
